<svg width="19" height="19" viewBox="0 0 19 19" fill="none" xmlns="http://www.w3.org/2000/svg">
<path d="M3.72329 0C1.67577 0 0 1.67573 0 3.72329V15.2773C0 17.3248 1.67573 19 3.72329 19H15.2773C17.3249 19 19 17.3249 19 15.2773V3.72329C19 1.67577 17.3249 0 15.2773 0H3.72329V0ZM4.65975 3.13538C5.64149 3.13538 6.24621 3.77988 6.26487 4.62706C6.26487 5.45554 5.64146 6.11815 4.64076 6.11815H4.62235C3.65929 6.11815 3.03682 5.45557 3.03682 4.62706C3.03682 3.7799 3.67813 3.13538 4.65973 3.13538H4.65975ZM13.12 7.095C15.008 7.095 16.4234 8.32906 16.4234 10.981V15.9317H13.5541V11.3129C13.5541 10.1523 13.1388 9.36041 12.1004 9.36041C11.3077 9.36041 10.8352 9.89413 10.6277 10.4097C10.5519 10.5942 10.5333 10.8518 10.5333 11.1098V15.9317H7.66392C7.66392 15.9317 7.70158 8.10761 7.66392 7.29748H10.5339V8.52017C10.9152 7.93186 11.5972 7.09498 13.12 7.09498V7.095ZM3.20607 7.29811H6.07543V15.9317H3.20607V7.29811V7.29811Z" fill="#949494"/>
</svg>
